<?xml version="1.0" encoding="utf-8" ?>	<!-- Generator: Assembly 2.2 - http://assemblyapp.co -->	<svg version="1.1" xmlns="http://www.w3.org/2000/svg" xmlns:xlink="http://www.w3.org/1999/xlink" width="2048.00" height="2048.00" viewBox="0 0 2048.0 2048.0">		<g id="document" transform="matrix(1,0,0,1,1024.0,1024.0)">			<path d="M667.741,488.201 C803.884,478.942 906.599,361.235 897.34,225.092 C888.081,88.9495 770.375,-13.7659 634.232,-4.5067 C498.089,4.75246 395.374,122.459 404.633,258.602 C413.892,394.744 531.598,497.46 667.741,488.201 Z " fill="#611567" fill-opacity="1.00" />			<path d="M651.579,-5.08681 C515.203,-5.50131 404.468,104.562 404.054,240.938 C403.639,377.314 513.703,488.049 650.079,488.463 L597.89,482.894 L601.039,246.731 L701.234,314.421 L710.637,275.249 L690.528,228.004 L641.221,227.854 L598.794,185.669 L615.15,113.45 L663.453,113.596 L690.656,185.948 L711.466,2.33809 C711.466,2.33809 696.5,-1.5234 681.529,-3.37963 C666.557,-5.23585 651.579,-5.08681 651.579,-5.08681 Z " fill="#8b508f" fill-opacity="1.00" />			<path d="M723.507,259.654 C722.198,254.617 720.885,251.038 719.567,248.915 C711.161,226.112 689.084,213.597 653.336,211.37 C641.949,210.805 634.007,209.589 629.51,207.722 C622.103,204.786 617.088,199.209 614.465,190.99 C613.679,188.075 612.637,182.377 611.338,173.898 C611.602,174.428 611.87,173.237 612.144,170.325 C612.963,162.382 614.978,152.986 618.189,142.136 C620.33,134.727 621.802,129.699 622.605,127.053 C625.277,119.116 632.174,115.561 643.295,116.39 C650.974,116.943 663.303,134.328 663.303,134.328 C663.303,134.328 667.975,138.825 675.738,160.586 C683.501,182.347 680.812,190.53 682.385,195.567 C685.558,197.43 688.866,198.367 692.309,198.378 C698.93,198.398 702.91,195.894 704.25,190.866 C704.802,183.452 704.82,177.625 704.303,173.386 L720.31,4.61992 C720.31,4.61992 715.536,3.31656 710.81,2.16159 C706.085,1.00659 701.409,-1.98952e-13 701.409,-1.98952e-13 C701.409,-1.98952e-13 688.189,106.974 688.212,108.581 C688.319,116.302 686.847,121.952 686.571,125.659 C684.721,124.064 683.401,122.868 682.609,122.071 C673.387,106.152 658.977,98.1626 639.378,98.103 C629.314,98.0724 619.773,100.295 610.754,104.77 C607.04,106.612 603.983,110.311 601.583,115.866 L597.171,129.757 C591.288,148.279 588.338,160.056 588.323,165.088 L588.253,188.13 C588.216,200.313 594.012,210.527 605.64,218.773 C616.211,226.486 627.72,230.229 640.169,230.002 C642.553,230.009 647.583,230.554 655.261,231.637 C669.556,233.799 679.347,236.61 684.634,240.069 C696.528,248.05 702.45,260.119 702.401,276.275 C702.374,285.28 700.367,291.895 696.382,296.121 C687.081,306.157 670.642,312.331 647.063,314.643 C638.85,315.412 629.993,310.353 620.491,299.465 C609.406,286.719 603.892,270.943 603.95,252.139 C602.639,247.633 603.081,245.383 592.449,245.35 C581.818,245.318 580.951,250.66 579.631,259.216 C578.311,267.773 578.616,265.305 578.071,270.335 C577.522,276.69 577.373,282.384 577.622,287.417 C577.142,314.695 577.529,317.875 577.516,322.377 L578.966,478.149 C578.966,478.149 585.264,480.14 591.731,481.745 C598.197,483.351 604.832,484.571 604.832,484.571 C602.046,355.508 600.585,313.31 600.593,310.926 C615.376,326.862 630.186,333.926 645.023,332.117 C688.741,326.688 714.605,313.127 722.616,291.433 C724.486,286.407 724.783,275.813 723.507,259.654 Z " fill="#ffffff" fill-opacity="1.00" />			<path d="M-540.37,484.845 C-457.278,485.097 -389.497,417.727 -389.244,334.635 L-388.66,142.421 C-388.408,59.3281 -455.778,-8.45254 -538.87,-8.70509 L-731.084,-9.28932 C-814.177,-9.54187 -881.957,57.828 -882.21,140.921 L-882.794,333.135 C-883.047,416.227 -815.677,484.008 -732.584,484.26 L-540.37,484.845 Z " fill="#611567" fill-opacity="1.00" />			<path d="M-736.953,484.247 L-694.863,484.375 L-694.211,269.877 L-581.854,324.793 L-581.681,267.944 L-657.446,242.394 L-694.019,206.672 L-670.656,133.634 L-628.786,127.293 L-602.025,146.339 L-594.468,216.939 L-574.914,-8.81465 L-735.453,-9.3026 C-818.545,-9.55515 -886.326,57.8147 -886.579,140.907 L-887.163,333.121 C-887.415,416.214 -820.046,483.995 -736.953,484.247 Z " fill="#8b508f" fill-opacity="1.00" />			<path d="M-570.161,282.916 C-571.47,277.88 -572.784,274.301 -574.101,272.178 C-582.507,249.375 -604.584,236.86 -640.333,234.633 C-651.72,234.068 -659.661,232.852 -664.158,230.985 C-671.565,228.049 -676.58,222.472 -679.204,214.253 C-679.99,211.337 -681.032,205.64 -682.33,197.161 C-682.067,197.691 -681.799,196.5 -681.525,193.588 C-680.706,185.645 -678.691,176.249 -675.48,165.399 C-673.339,157.99 -671.867,152.962 -671.064,150.316 C-668.391,142.379 -661.494,138.824 -650.373,139.653 C-642.694,140.206 -630.365,157.591 -630.365,157.591 C-630.365,157.591 -625.694,162.088 -617.931,183.849 C-610.167,205.61 -612.857,213.793 -611.283,218.83 C-608.111,220.693 -604.803,221.63 -601.36,221.641 C-594.739,221.661 -590.758,219.157 -589.419,214.129 C-588.867,206.715 -588.849,200.888 -589.366,196.649 L-571.918,-8.80663 L-591.003,-8.86464 C-591.003,-8.86464 -605.479,130.237 -605.457,131.844 C-605.35,139.564 -606.822,145.214 -607.098,148.922 C-608.947,147.327 -610.268,146.131 -611.06,145.334 C-620.281,129.415 -634.692,121.425 -654.29,121.366 C-664.355,121.335 -673.896,123.558 -682.915,128.033 C-686.628,129.875 -689.685,133.574 -692.086,139.129 L-696.498,153.02 C-702.381,171.542 -705.33,183.319 -705.346,188.351 L-705.416,211.393 C-705.453,223.576 -699.657,233.79 -688.029,242.036 C-677.458,249.749 -665.948,253.492 -653.499,253.265 C-651.116,253.272 -646.085,253.817 -638.408,254.9 C-624.112,257.062 -614.321,259.873 -609.035,263.332 C-597.141,271.313 -591.218,283.382 -591.267,299.538 C-591.295,308.543 -593.301,315.158 -597.287,319.384 C-606.587,329.42 -623.027,335.594 -646.606,337.906 C-654.818,338.675 -663.676,333.616 -673.177,322.728 C-684.262,309.982 -689.776,294.206 -689.719,275.402 C-691.03,270.896 -690.588,268.646 -701.219,268.613 C-711.851,268.581 -712.717,273.923 -714.037,282.479 C-715.357,291.035 -715.052,288.568 -715.597,293.598 C-716.146,299.953 -716.296,305.647 -716.047,310.68 C-716.527,337.958 -716.139,341.137 -716.153,345.64 L-714.652,484.631 L-688.766,484.709 C-691.552,355.647 -693.083,336.573 -693.076,334.189 C-678.293,350.125 -663.482,357.189 -648.645,355.38 C-604.928,349.951 -579.064,336.389 -571.052,314.696 C-569.183,309.669 -568.886,299.076 -570.161,282.916 Z " fill="#ffffff" fill-opacity="1.00" />			<path d="M249.937,486.931 L251.437,-6.61874 L-99.7265,-7.68608 C-182.819,-7.93864 -250.6,59.4312 -250.852,142.524 L-251.437,334.738 C-251.689,417.831 -184.319,485.611 -101.227,485.864 L249.937,486.931 Z " fill="#611567" fill-opacity="1.00" />			<path d="M-105.595,485.85 L-63.5057,485.978 L-62.8538,271.481 L49.5038,326.396 L49.6766,269.547 L-26.0885,243.997 L-62.6617,208.275 L-39.298,135.237 L2.57199,128.897 L29.3327,147.942 L36.8899,218.542 L56.4435,-7.21141 L-104.095,-7.69936 L-254.763,-8.15731 L-256.263,485.392 L-105.595,485.85 Z " fill="#8b508f" fill-opacity="1.00" />			<path d="M61.1964,284.52 C59.8875,279.483 58.5741,275.904 57.2563,273.781 C48.8503,250.978 26.7732,238.463 -8.975,236.236 C-20.3619,235.671 -28.3038,234.455 -32.8006,232.588 C-40.2075,229.652 -45.2228,224.075 -47.8463,215.856 C-48.632,212.941 -49.6741,207.243 -50.9726,198.764 C-50.7093,199.294 -50.4409,198.103 -50.1671,195.191 C-49.3484,187.248 -47.3335,177.852 -44.1223,167.003 C-41.981,159.593 -40.509,154.566 -39.7064,151.919 C-37.0338,143.982 -30.1368,140.427 -19.0155,141.256 C-11.3365,141.809 0.992468,159.194 0.992468,159.194 C0.992468,159.194 5.66352,163.692 13.4269,185.452 C21.1903,207.213 18.5005,215.396 20.0743,220.433 C23.2469,222.297 26.5547,223.234 29.9977,223.244 C36.619,223.264 40.5993,220.76 41.9389,215.732 C42.4911,208.318 42.5088,202.491 41.992,198.252 L59.4401,-7.20339 L40.3544,-7.2614 C40.3544,-7.2614 25.8783,131.84 25.9006,133.447 C26.0077,141.168 24.5357,146.818 24.2596,150.525 C22.4105,148.93 21.0898,147.734 20.2977,146.937 C11.0763,131.018 -3.33388,123.029 -22.9327,122.969 C-32.997,122.939 -42.5384,125.161 -51.557,129.636 C-55.2705,131.479 -58.3276,135.177 -60.7281,140.732 L-65.1404,154.623 C-71.0234,173.145 -73.9726,184.922 -73.9879,189.954 L-74.0579,212.996 C-74.095,225.179 -68.2993,235.393 -56.6708,243.639 C-46.1002,251.352 -34.5905,255.095 -22.1418,254.868 C-19.7582,254.875 -14.7276,255.42 -7.05021,256.503 C7.24522,258.665 17.0362,261.476 22.3227,264.935 C34.2168,272.917 40.1393,284.985 40.0902,301.141 C40.0628,310.146 38.0563,316.761 34.0707,320.987 C24.7704,331.023 8.33078,337.197 -15.2481,339.509 C-23.4608,340.279 -32.318,335.219 -41.8196,324.332 C-52.9046,311.585 -58.4185,295.81 -58.3614,277.005 C-59.6719,272.499 -59.2304,270.249 -69.8618,270.217 C-80.4932,270.184 -81.3597,275.526 -82.6797,284.082 C-83.9996,292.639 -83.6947,290.171 -84.2397,295.201 C-84.7888,301.556 -84.9385,307.25 -84.6889,312.283 C-85.1691,339.561 -84.7815,342.741 -84.7952,347.243 L-83.2941,486.234 L-57.4084,486.313 C-60.1944,357.25 -61.7255,338.176 -61.7183,335.792 C-46.935,351.728 -32.1248,358.792 -17.2876,356.983 C26.4295,351.554 52.2938,337.993 60.3053,316.299 C62.1745,311.273 62.4716,300.679 61.1964,284.52 Z " fill="#ffffff" fill-opacity="1.00" />			<path d="M-844.373,-333.862 C-844.373,-364.84 -869.301,-389.526 -900.279,-389.526 C-931.256,-389.526 -955.942,-364.598 -955.942,-333.62 C-955.942,-302.642 -931.256,-277.957 -900.279,-277.957 C-892.776,-277.957 -886.484,-271.664 -886.484,-264.162 C-886.484,-256.659 -892.776,-250.609 -900.279,-250.609 C-907.781,-250.609 -913.831,-256.659 -913.831,-264.404 L-956.184,-264.404 C-956.184,-232.458 -931.256,-208.014 -900.279,-208.014 C-869.301,-208.014 -844.373,-232.7 -844.373,-263.678 C-844.373,-276.989 -848.729,-289.089 -856.474,-298.77 C-866.638,-311.839 -882.611,-320.309 -900.279,-320.309 C-907.781,-320.309 -913.831,-326.36 -913.831,-333.862 C-913.831,-341.365 -907.781,-347.657 -900.279,-347.657 C-892.776,-347.657 -886.484,-341.365 -886.484,-333.862 L-844.373,-333.862 Z M-660.2,-363.146 C-676.657,-379.603 -699.164,-389.526 -724.092,-389.526 C-774.189,-389.526 -814.847,-348.867 -814.847,-298.77 C-814.847,-248.673 -774.189,-208.014 -724.092,-208.014 C-698.922,-208.014 -676.173,-218.421 -659.716,-234.878 L-693.598,-268.276 C-701.1,-260.532 -711.749,-256.175 -724.092,-256.175 C-748.777,-256.175 -766.686,-274.084 -766.686,-298.77 C-766.686,-323.456 -748.777,-341.365 -724.092,-341.365 C-711.749,-341.365 -701.1,-337.008 -693.598,-329.506 L-660.2,-363.146 Z M-463.2,-208.014 L-501.68,-273.842 C-488.611,-285.943 -480.141,-303.368 -480.141,-322.729 C-480.141,-359.516 -510.151,-389.526 -546.937,-389.526 L-623.414,-389.526 L-623.414,-208.014 L-575.737,-208.014 L-575.737,-256.175 L-546.211,-256.175 L-518.137,-208.014 L-463.2,-208.014 Z M-575.737,-349.351 L-546.211,-349.351 C-531.69,-349.351 -520.073,-337.734 -520.073,-323.213 C-520.073,-308.693 -531.69,-297.318 -546.211,-297.318 L-575.737,-297.318 L-575.737,-349.351 Z M-404.148,-208.014 L-393.257,-231.732 L-318.959,-231.732 L-307.826,-208.014 L-260.149,-208.014 L-345.58,-389.526 L-367.12,-389.526 L-451.825,-208.014 L-404.148,-208.014 Z M-355.987,-311.839 L-337.594,-271.906 L-374.622,-271.906 L-355.987,-311.839 Z M-239.82,-342.333 L-192.627,-342.333 L-192.627,-208.014 L-144.95,-208.014 L-144.95,-342.333 L-96.7892,-342.333 L-96.7892,-389.768 L-239.82,-389.768 L-239.82,-342.333 Z M86.416,-363.146 C69.959,-379.603 47.4516,-389.526 22.5241,-389.526 C-27.573,-389.526 -68.2315,-348.867 -68.2315,-298.77 C-68.2315,-248.673 -27.573,-208.014 22.5241,-208.014 C47.6936,-208.014 70.443,-218.421 86.9,-234.878 L53.018,-268.276 C45.5155,-260.532 34.8668,-256.175 22.5241,-256.175 C-2.16143,-256.175 -20.0705,-274.084 -20.0705,-298.77 C-20.0705,-323.456 -2.16143,-341.365 22.5241,-341.365 C34.8668,-341.365 45.5155,-337.008 53.018,-329.506 L86.416,-363.146 Z M123.202,-389.526 L123.202,-208.014 L170.879,-208.014 L170.879,-277.231 L228.479,-277.231 L228.479,-208.014 L276.156,-208.014 L276.156,-389.526 L228.479,-389.526 L228.479,-324.908 L170.879,-324.908 L170.879,-389.526 L123.202,-389.526 Z M421.607,-389.526 L421.607,-208.014 L469.283,-208.014 L469.283,-277.231 L526.883,-277.231 L526.883,-208.014 L574.56,-208.014 L574.56,-389.526 L526.883,-389.526 L526.883,-324.908 L469.283,-324.908 L469.283,-389.526 L421.607,-389.526 Z M658.781,-389.526 L610.862,-389.526 L610.862,-279.651 C610.862,-239.718 642.566,-208.014 682.499,-208.014 C721.947,-208.014 754.135,-239.718 754.135,-279.651 L754.135,-389.526 L706.216,-389.526 L706.216,-280.377 C706.216,-267.308 695.567,-256.659 682.499,-256.659 C669.43,-256.659 658.781,-267.308 658.781,-280.377 L658.781,-389.526 Z M838.114,-247.221 L838.114,-278.683 L870.06,-278.683 C878.289,-278.683 885.791,-271.664 885.791,-262.952 C885.791,-254.239 878.773,-247.221 870.06,-247.221 L838.114,-247.221 Z M838.114,-318.615 L838.114,-350.077 L861.106,-350.077 C869.818,-350.077 876.836,-343.059 876.836,-334.346 C876.836,-325.634 869.818,-318.615 861.106,-318.615 L838.114,-318.615 Z M879.983,-208.014 C908.782,-208.014 933.226,-232.458 933.226,-261.258 C933.226,-277.715 924.997,-292.962 912.655,-302.884 C919.673,-311.839 924.271,-323.213 924.271,-335.556 C924.271,-364.598 899.586,-389.526 870.544,-389.526 L790.437,-389.526 L790.437,-208.014 L879.983,-208.014 Z " fill="#611567" fill-opacity="1.00" />		</g>	</svg>