<?xml version="1.0" encoding="utf-8" ?>	<!-- Generator: Assembly 2.2 - http://assemblyapp.co -->	<svg version="1.1" xmlns="http://www.w3.org/2000/svg" xmlns:xlink="http://www.w3.org/1999/xlink" width="2048.00" height="1365.33" viewBox="0 0 2048.0 1365.3333333333335">		<g id="document" transform="matrix(1,0,0,1,1024.0,682.6666666666667)">			<path d="M-1049.49,715.499 L-38.643,715.499 L-38.643,-715.499 L-1049.49,-715.499 L-1049.49,715.499 Z " fill="#3e58cc" fill-opacity="1.00" />			<path d="M-693.863,86.9799 C-693.863,82.0921 -694.807,77.4265 -696.696,72.9831 C-698.584,68.5397 -701.195,64.6517 -704.527,61.3191 C-707.86,57.9866 -711.748,55.3761 -716.191,53.4876 C-720.635,51.5992 -725.3,50.6549 -730.188,50.6549 L-904.148,50.6549 C-909.258,50.6549 -913.979,51.5992 -918.311,53.4876 C-922.643,55.3761 -926.42,57.9866 -929.642,61.3191 C-932.863,64.6517 -935.418,68.5397 -937.307,72.9831 C-939.195,77.4265 -940.139,82.0921 -940.139,86.9799 C-940.139,96.9775 -936.585,105.531 -929.475,112.641 C-922.366,119.75 -913.923,123.305 -904.148,123.305 L-730.188,123.305 C-725.3,123.305 -720.635,122.361 -716.191,120.472 C-711.748,118.584 -707.86,115.973 -704.527,112.641 C-701.195,109.308 -698.584,105.476 -696.696,101.143 C-694.807,96.8109 -693.863,92.0898 -693.863,86.9799 Z M-817.168,-36.3249 C-822.278,-36.3249 -826.999,-35.3807 -831.331,-33.4922 C-835.664,-31.6038 -839.44,-28.9933 -842.662,-25.6607 C-845.883,-22.3282 -848.438,-18.4402 -850.327,-13.9968 C-852.215,-9.55334 -853.16,-4.88776 -853.16,0 C-853.16,9.99768 -849.605,18.5513 -842.495,25.6607 C-835.386,32.7702 -826.943,36.3249 -817.168,36.3249 C-812.28,36.3249 -807.615,35.3807 -803.171,33.4922 C-798.728,31.6038 -794.84,28.9933 -791.507,25.6607 C-788.175,22.3282 -785.564,18.4957 -783.676,14.1634 C-781.787,9.83106 -780.843,5.10993 -780.843,0 C-780.843,-4.88776 -781.787,-9.55334 -783.676,-13.9968 C-785.564,-18.4402 -788.175,-22.3282 -791.507,-25.6607 C-794.84,-28.9933 -798.728,-31.6038 -803.171,-33.4922 C-807.615,-35.3807 -812.28,-36.3249 -817.168,-36.3249 Z M-940.139,-86.9799 C-940.139,-76.9822 -936.585,-68.4286 -929.475,-61.3191 C-922.366,-54.2097 -913.923,-50.6549 -904.148,-50.6549 L-730.188,-50.6549 C-725.3,-50.6549 -720.635,-51.5992 -716.191,-53.4876 C-711.748,-55.3761 -707.86,-57.9866 -704.527,-61.3191 C-701.195,-64.6517 -698.584,-68.4841 -696.696,-72.8165 C-694.807,-77.1488 -693.863,-81.8699 -693.863,-86.9799 C-693.863,-91.8676 -694.807,-96.5332 -696.696,-100.977 C-698.584,-105.42 -701.195,-109.308 -704.527,-112.641 C-707.86,-115.973 -711.748,-118.584 -716.191,-120.472 C-720.635,-122.361 -725.3,-123.305 -730.188,-123.305 L-904.148,-123.305 C-909.258,-123.305 -913.979,-122.361 -918.311,-120.472 C-922.643,-118.584 -926.42,-115.973 -929.642,-112.641 C-932.863,-109.308 -935.418,-105.42 -937.307,-100.977 C-939.195,-96.5332 -940.139,-91.8676 -940.139,-86.9799 Z M-420.926,86.9799 C-420.926,82.0921 -421.871,77.4265 -423.759,72.9831 C-425.647,68.5397 -428.258,64.6517 -431.591,61.3191 C-434.923,57.9866 -438.811,55.3761 -443.254,53.4876 C-447.698,51.5992 -452.363,50.6549 -457.251,50.6549 C-471.026,50.6549 -483.023,45.7672 -493.243,35.9917 C-503.018,25.7718 -507.906,13.7746 -507.906,0 C-507.906,-33.9921 -520.014,-62.9854 -544.231,-86.9799 C-568.226,-111.196 -597.219,-123.305 -631.211,-123.305 C-636.321,-123.305 -641.042,-122.361 -645.374,-120.472 C-649.707,-118.584 -653.484,-115.973 -656.705,-112.641 C-659.927,-109.308 -662.481,-105.42 -664.37,-100.977 C-666.258,-96.5332 -667.203,-91.8676 -667.203,-86.9799 C-667.203,-76.9822 -663.648,-68.4286 -656.538,-61.3191 C-649.429,-54.2097 -640.986,-50.6549 -631.211,-50.6549 C-617.214,-50.6549 -605.217,-45.6561 -595.219,-35.6584 C-585.222,-25.6607 -580.223,-13.7746 -580.223,0 C-580.223,34.2143 -568.226,63.3187 -544.231,87.3131 C-520.237,111.308 -491.243,123.305 -457.251,123.305 C-452.363,123.305 -447.698,122.361 -443.254,120.472 C-438.811,118.584 -434.923,115.973 -431.591,112.641 C-428.258,109.308 -425.647,105.476 -423.759,101.143 C-421.871,96.8109 -420.926,92.0898 -420.926,86.9799 Z M-594.886,0 C-594.886,-4.88776 -595.83,-9.55334 -597.719,-13.9968 C-599.607,-18.4402 -602.218,-22.3282 -605.55,-25.6607 C-608.883,-28.9933 -612.771,-31.6038 -617.214,-33.4922 C-621.658,-35.3807 -626.323,-36.3249 -631.211,-36.3249 C-636.321,-36.3249 -641.042,-35.3807 -645.374,-33.4922 C-649.707,-31.6038 -653.484,-28.9933 -656.705,-25.6607 C-659.927,-22.3282 -662.481,-18.4402 -664.37,-13.9968 C-666.258,-9.55334 -667.203,-4.88776 -667.203,0 L-667.203,86.9799 C-667.203,96.9775 -663.648,105.531 -656.538,112.641 C-649.429,119.75 -640.986,123.305 -631.211,123.305 C-626.101,123.305 -621.324,122.361 -616.881,120.472 C-612.438,118.584 -608.605,116.029 -605.384,112.807 C-602.162,109.586 -599.607,105.753 -597.719,101.31 C-595.83,96.8664 -594.886,92.0898 -594.886,86.9799 L-594.886,0 Z M-420.926,-86.9799 C-420.926,-91.8676 -421.871,-96.5332 -423.759,-100.977 C-425.647,-105.42 -428.258,-109.308 -431.591,-112.641 C-434.923,-115.973 -438.811,-118.584 -443.254,-120.472 C-447.698,-122.361 -452.363,-123.305 -457.251,-123.305 C-462.361,-123.305 -467.082,-122.361 -471.415,-120.472 C-475.747,-118.584 -479.524,-115.973 -482.745,-112.641 C-485.967,-109.308 -488.522,-105.42 -490.41,-100.977 C-492.299,-96.5332 -493.243,-91.8676 -493.243,-86.9799 L-493.243,0 C-493.243,9.99768 -489.688,18.5513 -482.579,25.6607 C-475.469,32.7702 -467.027,36.3249 -457.251,36.3249 C-452.363,36.3249 -447.698,35.3807 -443.254,33.4922 C-438.811,31.6038 -434.923,28.9933 -431.591,25.6607 C-428.258,22.3282 -425.647,18.4957 -423.759,14.1634 C-421.871,9.83106 -420.926,5.10993 -420.926,0 L-420.926,-86.9799 Z M-321.949,0 C-321.949,-13.9968 -317.061,-25.8829 -307.286,-35.6584 C-297.288,-45.6561 -285.291,-50.6549 -271.294,-50.6549 L-184.314,-50.6549 C-179.427,-50.6549 -174.761,-51.5992 -170.318,-53.4876 C-165.874,-55.3761 -161.986,-57.9866 -158.654,-61.3191 C-155.321,-64.6517 -152.711,-68.4841 -150.822,-72.8165 C-148.934,-77.1488 -147.99,-81.8699 -147.99,-86.9799 C-147.99,-91.8676 -148.934,-96.5332 -150.822,-100.977 C-152.711,-105.42 -155.321,-109.308 -158.654,-112.641 C-161.986,-115.973 -165.874,-118.584 -170.318,-120.472 C-174.761,-122.361 -179.427,-123.305 -184.314,-123.305 L-271.294,-123.305 C-305.064,-123.305 -334.058,-111.196 -358.274,-86.9799 C-382.269,-62.9854 -394.266,-33.9921 -394.266,0 L-394.266,86.9799 C-394.266,96.9775 -390.711,105.531 -383.602,112.641 C-376.492,119.75 -368.05,123.305 -358.274,123.305 C-353.164,123.305 -348.388,122.361 -343.944,120.472 C-339.501,118.584 -335.668,116.029 -332.447,112.807 C-329.225,109.586 -326.67,105.753 -324.782,101.31 C-322.893,96.8664 -321.949,92.0898 -321.949,86.9799 L-321.949,0 Z M-147.99,0 C-147.99,-4.88776 -148.934,-9.55334 -150.822,-13.9968 C-152.711,-18.4402 -155.321,-22.3282 -158.654,-25.6607 C-161.986,-28.9933 -165.874,-31.6038 -170.318,-33.4922 C-174.761,-35.3807 -179.427,-36.3249 -184.314,-36.3249 L-271.294,-36.3249 C-276.404,-36.3249 -281.125,-35.3807 -285.458,-33.4922 C-289.79,-31.6038 -293.567,-28.9933 -296.788,-25.6607 C-300.01,-22.3282 -302.565,-18.4402 -304.453,-13.9968 C-306.342,-9.55334 -307.286,-4.88776 -307.286,0 C-307.286,9.99768 -303.731,18.5513 -296.622,25.6607 C-289.512,32.7702 -281.07,36.3249 -271.294,36.3249 L-184.314,36.3249 C-179.427,36.3249 -174.761,35.3807 -170.318,33.4922 C-165.874,31.6038 -161.986,28.9933 -158.654,25.6607 C-155.321,22.3282 -152.711,18.4957 -150.822,14.1634 C-148.934,9.83106 -147.99,5.10993 -147.99,0 Z " fill="#ffffff" fill-opacity="1.00" />			<path d="M355.101,86.9799 C355.101,82.0921 354.157,77.4265 352.269,72.9831 C350.38,68.5397 347.77,64.6517 344.437,61.3191 C341.105,57.9866 337.217,55.3761 332.773,53.4876 C328.33,51.5992 323.664,50.6549 318.776,50.6549 L144.817,50.6549 C139.707,50.6549 134.986,51.5992 130.653,53.4876 C126.321,55.3761 122.544,57.9866 119.323,61.3191 C116.101,64.6517 113.546,68.5397 111.658,72.9831 C109.769,77.4265 108.825,82.0921 108.825,86.9799 C108.825,96.9775 112.38,105.531 119.489,112.641 C126.599,119.75 135.041,123.305 144.817,123.305 L318.776,123.305 C323.664,123.305 328.33,122.361 332.773,120.472 C337.217,118.584 341.105,115.973 344.437,112.641 C347.77,109.308 350.38,105.476 352.269,101.143 C354.157,96.8109 355.101,92.0898 355.101,86.9799 Z M231.797,-36.3249 C226.687,-36.3249 221.965,-35.3807 217.633,-33.4922 C213.301,-31.6038 209.524,-28.9933 206.302,-25.6607 C203.081,-22.3282 200.526,-18.4402 198.638,-13.9968 C196.749,-9.55334 195.805,-4.88776 195.805,0 C195.805,9.99768 199.36,18.5513 206.469,25.6607 C213.579,32.7702 222.021,36.3249 231.797,36.3249 C236.684,36.3249 241.35,35.3807 245.793,33.4922 C250.237,31.6038 254.125,28.9933 257.457,25.6607 C260.79,22.3282 263.4,18.4957 265.289,14.1634 C267.177,9.83106 268.121,5.10993 268.121,0 C268.121,-4.88776 267.177,-9.55334 265.289,-13.9968 C263.4,-18.4402 260.79,-22.3282 257.457,-25.6607 C254.125,-28.9933 250.237,-31.6038 245.793,-33.4922 C241.35,-35.3807 236.684,-36.3249 231.797,-36.3249 Z M108.825,-86.9799 C108.825,-76.9822 112.38,-68.4286 119.489,-61.3191 C126.599,-54.2097 135.041,-50.6549 144.817,-50.6549 L318.776,-50.6549 C323.664,-50.6549 328.33,-51.5992 332.773,-53.4876 C337.217,-55.3761 341.105,-57.9866 344.437,-61.3191 C347.77,-64.6517 350.38,-68.4841 352.269,-72.8165 C354.157,-77.1488 355.101,-81.8699 355.101,-86.9799 C355.101,-91.8676 354.157,-96.5332 352.269,-100.977 C350.38,-105.42 347.77,-109.308 344.437,-112.641 C341.105,-115.973 337.217,-118.584 332.773,-120.472 C328.33,-122.361 323.664,-123.305 318.776,-123.305 L144.817,-123.305 C139.707,-123.305 134.986,-122.361 130.653,-120.472 C126.321,-118.584 122.544,-115.973 119.323,-112.641 C116.101,-109.308 113.546,-105.42 111.658,-100.977 C109.769,-96.5332 108.825,-91.8676 108.825,-86.9799 Z M628.038,86.9799 C628.038,82.0921 627.094,77.4265 625.205,72.9831 C623.317,68.5397 620.706,64.6517 617.374,61.3191 C614.041,57.9866 610.153,55.3761 605.71,53.4876 C601.267,51.5992 596.601,50.6549 591.713,50.6549 C577.939,50.6549 565.941,45.7672 555.722,35.9917 C545.946,25.7718 541.058,13.7746 541.058,0 C541.058,-33.9921 528.95,-62.9854 504.733,-86.9799 C480.739,-111.196 451.746,-123.305 417.753,-123.305 C412.644,-123.305 407.922,-122.361 403.59,-120.472 C399.258,-118.584 395.481,-115.973 392.259,-112.641 C389.038,-109.308 386.483,-105.42 384.594,-100.977 C382.706,-96.5332 381.762,-91.8676 381.762,-86.9799 C381.762,-76.9822 385.317,-68.4286 392.426,-61.3191 C399.535,-54.2097 407.978,-50.6549 417.753,-50.6549 C431.75,-50.6549 443.747,-45.6561 453.745,-35.6584 C463.743,-25.6607 468.742,-13.7746 468.742,0 C468.742,34.2143 480.739,63.3187 504.733,87.3131 C528.728,111.308 557.721,123.305 591.713,123.305 C596.601,123.305 601.267,122.361 605.71,120.472 C610.153,118.584 614.041,115.973 617.374,112.641 C620.706,109.308 623.317,105.476 625.205,101.143 C627.094,96.8109 628.038,92.0898 628.038,86.9799 Z M454.078,0 C454.078,-4.88776 453.134,-9.55334 451.246,-13.9968 C449.357,-18.4402 446.747,-22.3282 443.414,-25.6607 C440.082,-28.9933 436.194,-31.6038 431.75,-33.4922 C427.307,-35.3807 422.641,-36.3249 417.753,-36.3249 C412.644,-36.3249 407.922,-35.3807 403.59,-33.4922 C399.258,-31.6038 395.481,-28.9933 392.259,-25.6607 C389.038,-22.3282 386.483,-18.4402 384.594,-13.9968 C382.706,-9.55334 381.762,-4.88776 381.762,0 L381.762,86.9799 C381.762,96.9775 385.317,105.531 392.426,112.641 C399.535,119.75 407.978,123.305 417.753,123.305 C422.863,123.305 427.64,122.361 432.083,120.472 C436.527,118.584 440.359,116.029 443.581,112.807 C446.802,109.586 449.357,105.753 451.246,101.31 C453.134,96.8664 454.078,92.0898 454.078,86.9799 L454.078,0 Z M628.038,-86.9799 C628.038,-91.8676 627.094,-96.5332 625.205,-100.977 C623.317,-105.42 620.706,-109.308 617.374,-112.641 C614.041,-115.973 610.153,-118.584 605.71,-120.472 C601.267,-122.361 596.601,-123.305 591.713,-123.305 C586.603,-123.305 581.882,-122.361 577.55,-120.472 C573.217,-118.584 569.441,-115.973 566.219,-112.641 C562.998,-109.308 560.443,-105.42 558.554,-100.977 C556.666,-96.5332 555.722,-91.8676 555.722,-86.9799 L555.722,0 C555.722,9.99768 559.276,18.5513 566.386,25.6607 C573.495,32.7702 581.938,36.3249 591.713,36.3249 C596.601,36.3249 601.267,35.3807 605.71,33.4922 C610.153,31.6038 614.041,28.9933 617.374,25.6607 C620.706,22.3282 623.317,18.4957 625.205,14.1634 C627.094,9.83106 628.038,5.10993 628.038,0 L628.038,-86.9799 Z M727.015,0 C727.015,-13.9968 731.903,-25.8829 741.678,-35.6584 C751.676,-45.6561 763.673,-50.6549 777.67,-50.6549 L864.65,-50.6549 C869.538,-50.6549 874.203,-51.5992 878.647,-53.4876 C883.09,-55.3761 886.978,-57.9866 890.311,-61.3191 C893.643,-64.6517 896.254,-68.4841 898.142,-72.8165 C900.031,-77.1488 900.975,-81.8699 900.975,-86.9799 C900.975,-91.8676 900.031,-96.5332 898.142,-100.977 C896.254,-105.42 893.643,-109.308 890.311,-112.641 C886.978,-115.973 883.09,-118.584 878.647,-120.472 C874.203,-122.361 869.538,-123.305 864.65,-123.305 L777.67,-123.305 C743.9,-123.305 714.907,-111.196 690.69,-86.9799 C666.696,-62.9854 654.699,-33.9921 654.699,0 L654.699,86.9799 C654.699,96.9775 658.253,105.531 665.363,112.641 C672.472,119.75 680.915,123.305 690.69,123.305 C695.8,123.305 700.577,122.361 705.02,120.472 C709.464,118.584 713.296,116.029 716.518,112.807 C719.739,109.586 722.294,105.753 724.182,101.31 C726.071,96.8664 727.015,92.0898 727.015,86.9799 L727.015,0 Z M900.975,0 C900.975,-4.88776 900.031,-9.55334 898.142,-13.9968 C896.254,-18.4402 893.643,-22.3282 890.311,-25.6607 C886.978,-28.9933 883.09,-31.6038 878.647,-33.4922 C874.203,-35.3807 869.538,-36.3249 864.65,-36.3249 L777.67,-36.3249 C772.56,-36.3249 767.839,-35.3807 763.507,-33.4922 C759.174,-31.6038 755.397,-28.9933 752.176,-25.6607 C748.955,-22.3282 746.4,-18.4402 744.511,-13.9968 C742.623,-9.55334 741.678,-4.88776 741.678,0 C741.678,9.99768 745.233,18.5513 752.343,25.6607 C759.452,32.7702 767.895,36.3249 777.67,36.3249 L864.65,36.3249 C869.538,36.3249 874.203,35.3807 878.647,33.4922 C883.09,31.6038 886.978,28.9933 890.311,25.6607 C893.643,22.3282 896.254,18.4957 898.142,14.1634 C900.031,9.83106 900.975,5.10993 900.975,0 Z " fill="#3e58cc" fill-opacity="1.00" />		</g>	</svg>