<?xml version="1.0" encoding="utf-8" ?>	<!-- Generator: Assembly 2.2 - http://assemblyapp.co -->	<svg version="1.1" xmlns="http://www.w3.org/2000/svg" xmlns:xlink="http://www.w3.org/1999/xlink" width="2048.00" height="1365.33" viewBox="0 0 2048.0 1365.3333333333335">		<g id="document" transform="matrix(1,0,0,1,1024.0,682.6666666666667)">			<path d="M-931.861,-277.932 L-900.314,-277.932 L-900.314,-398.034 L-931.861,-398.034 L-931.861,-277.932 Z M-741.565,-277.932 L-741.565,-398.034 L-773.112,-398.034 L-773.112,-341.346 L-829.96,-398.034 L-842.771,-398.034 L-842.771,-277.932 L-811.224,-277.932 L-811.224,-334.78 L-754.536,-277.932 L-741.565,-277.932 Z M-684.023,-277.932 L-652.476,-277.932 L-652.476,-325.813 L-613.883,-325.813 L-613.883,-352.555 L-652.476,-352.555 L-652.476,-372.092 L-608.759,-372.092 L-608.759,-398.034 L-684.023,-398.034 L-684.023,-277.932 Z M-552.978,-277.932 L-521.431,-277.932 L-521.431,-398.034 L-552.978,-398.034 L-552.978,-277.932 Z M-362.682,-277.932 L-362.682,-398.034 L-394.229,-398.034 L-394.229,-341.346 L-451.078,-398.034 L-463.889,-398.034 L-463.889,-277.932 L-432.342,-277.932 L-432.342,-334.78 L-375.653,-277.932 L-362.682,-277.932 Z M-305.3,-277.932 L-273.753,-277.932 L-273.753,-398.034 L-305.3,-398.034 L-305.3,-277.932 Z M-218.773,-366.807 L-187.546,-366.807 L-187.546,-277.932 L-156,-277.932 L-156,-366.807 L-124.132,-366.807 L-124.132,-398.194 L-218.773,-398.194 L-218.773,-366.807 Z M3.06928,-361.203 C3.06928,-381.7 -13.4248,-398.034 -33.9222,-398.034 C-54.4197,-398.034 -70.7536,-381.54 -70.7536,-361.043 C-70.7536,-340.545 -54.4197,-324.211 -33.9222,-324.211 C-28.958,-324.211 -24.7945,-320.048 -24.7945,-315.083 C-24.7945,-310.119 -28.958,-306.116 -33.9222,-306.116 C-38.8865,-306.116 -42.8899,-310.119 -42.8899,-315.244 L-70.9137,-315.244 C-70.9137,-294.106 -54.4197,-277.932 -33.9222,-277.932 C-13.4248,-277.932 3.06928,-294.266 3.06928,-314.763 C3.06928,-323.571 0.186824,-331.577 -4.93754,-337.983 C-11.6633,-346.63 -22.2323,-352.235 -33.9222,-352.235 C-38.8865,-352.235 -42.8899,-356.238 -42.8899,-361.203 C-42.8899,-366.167 -38.8865,-370.33 -33.9222,-370.33 C-28.958,-370.33 -24.7945,-366.167 -24.7945,-361.203 L3.06928,-361.203 Z M156.693,-380.579 C145.804,-391.468 130.912,-398.034 114.417,-398.034 C81.2692,-398.034 54.3663,-371.131 54.3663,-337.983 C54.3663,-304.835 81.2692,-277.932 114.417,-277.932 C131.072,-277.932 146.124,-284.818 157.014,-295.707 L134.595,-317.806 C129.63,-312.681 122.584,-309.799 114.417,-309.799 C98.0836,-309.799 86.2335,-321.649 86.2335,-337.983 C86.2335,-354.317 98.0836,-366.167 114.417,-366.167 C122.584,-366.167 129.63,-363.284 134.595,-358.32 L156.693,-380.579 Z M320.406,-277.932 L294.945,-321.489 C303.592,-329.496 309.197,-341.025 309.197,-353.836 C309.197,-378.177 289.34,-398.034 264.999,-398.034 L214.396,-398.034 L214.396,-277.932 L245.943,-277.932 L245.943,-309.799 L265.479,-309.799 L284.055,-277.932 L320.406,-277.932 Z M245.943,-371.451 L265.479,-371.451 C275.088,-371.451 282.774,-363.765 282.774,-354.157 C282.774,-344.548 275.088,-337.022 265.479,-337.022 L245.943,-337.022 L245.943,-371.451 Z M396.044,-277.932 L403.25,-293.625 L452.412,-293.625 L459.778,-277.932 L491.325,-277.932 L434.797,-398.034 L420.545,-398.034 L364.497,-277.932 L396.044,-277.932 Z M427.911,-346.63 L440.082,-320.208 L415.581,-320.208 L427.911,-346.63 Z M530.132,-366.807 L561.358,-366.807 L561.358,-277.932 L592.905,-277.932 L592.905,-366.807 L624.772,-366.807 L624.772,-398.194 L530.132,-398.194 L530.132,-366.807 Z M772.952,-380.579 C762.063,-391.468 747.17,-398.034 730.676,-398.034 C697.528,-398.034 670.625,-371.131 670.625,-337.983 C670.625,-304.835 697.528,-277.932 730.676,-277.932 C747.33,-277.932 762.383,-284.818 773.272,-295.707 L750.853,-317.806 C745.889,-312.681 738.843,-309.799 730.676,-309.799 C714.342,-309.799 702.492,-321.649 702.492,-337.983 C702.492,-354.317 714.342,-366.167 730.676,-366.167 C738.843,-366.167 745.889,-363.284 750.853,-358.32 L772.952,-380.579 Z M830.654,-398.034 L830.654,-277.932 L862.201,-277.932 L862.201,-323.731 L900.314,-323.731 L900.314,-277.932 L931.861,-277.932 L931.861,-398.034 L900.314,-398.034 L900.314,-355.278 L862.201,-355.278 L862.201,-398.034 L830.654,-398.034 Z " fill="#3e58cc" fill-opacity="1.00" />			<path d="M-1163.64,752.072 L1163.64,752.072 L1163.64,-2.59176e-06 L-1163.64,-2.59176e-06 L-1163.64,752.072 Z " fill="#3e58cc" fill-opacity="1.00" />			<path d="M-931.861,436.167 L-900.314,436.167 L-900.314,316.065 L-931.861,316.065 L-931.861,436.167 Z M-741.565,436.167 L-741.565,316.065 L-773.112,316.065 L-773.112,372.753 L-829.96,316.065 L-842.771,316.065 L-842.771,436.167 L-811.224,436.167 L-811.224,379.319 L-754.536,436.167 L-741.565,436.167 Z M-684.023,436.167 L-652.476,436.167 L-652.476,388.287 L-613.883,388.287 L-613.883,361.544 L-652.476,361.544 L-652.476,342.007 L-608.759,342.007 L-608.759,316.065 L-684.023,316.065 L-684.023,436.167 Z M-552.978,436.167 L-521.431,436.167 L-521.431,316.065 L-552.978,316.065 L-552.978,436.167 Z M-362.682,436.167 L-362.682,316.065 L-394.229,316.065 L-394.229,372.753 L-451.078,316.065 L-463.889,316.065 L-463.889,436.167 L-432.342,436.167 L-432.342,379.319 L-375.653,436.167 L-362.682,436.167 Z M-305.3,436.167 L-273.753,436.167 L-273.753,316.065 L-305.3,316.065 L-305.3,436.167 Z M-218.773,347.292 L-187.546,347.292 L-187.546,436.167 L-156,436.167 L-156,347.292 L-124.132,347.292 L-124.132,315.905 L-218.773,315.905 L-218.773,347.292 Z M3.06928,352.897 C3.06928,332.399 -13.4248,316.065 -33.9222,316.065 C-54.4197,316.065 -70.7536,332.559 -70.7536,353.057 C-70.7536,373.554 -54.4197,389.888 -33.9222,389.888 C-28.958,389.888 -24.7945,394.052 -24.7945,399.016 C-24.7945,403.98 -28.958,407.983 -33.9222,407.983 C-38.8865,407.983 -42.8899,403.98 -42.8899,398.856 L-70.9137,398.856 C-70.9137,419.994 -54.4197,436.167 -33.9222,436.167 C-13.4248,436.167 3.06928,419.834 3.06928,399.336 C3.06928,390.529 0.186824,382.522 -4.93754,376.116 C-11.6633,367.469 -22.2323,361.864 -33.9222,361.864 C-38.8865,361.864 -42.8899,357.861 -42.8899,352.897 C-42.8899,347.932 -38.8865,343.769 -33.9222,343.769 C-28.958,343.769 -24.7945,347.932 -24.7945,352.897 L3.06928,352.897 Z M156.693,333.52 C145.804,322.631 130.912,316.065 114.417,316.065 C81.2692,316.065 54.3663,342.968 54.3663,376.116 C54.3663,409.265 81.2692,436.167 114.417,436.167 C131.072,436.167 146.124,429.282 157.014,418.392 L134.595,396.293 C129.63,401.418 122.584,404.3 114.417,404.3 C98.0836,404.3 86.2335,392.45 86.2335,376.116 C86.2335,359.782 98.0836,347.932 114.417,347.932 C122.584,347.932 129.63,350.815 134.595,355.779 L156.693,333.52 Z M320.406,436.167 L294.945,392.61 C303.592,384.604 309.197,373.074 309.197,360.263 C309.197,335.922 289.34,316.065 264.999,316.065 L214.396,316.065 L214.396,436.167 L245.943,436.167 L245.943,404.3 L265.479,404.3 L284.055,436.167 L320.406,436.167 Z M245.943,342.648 L265.479,342.648 C275.088,342.648 282.774,350.334 282.774,359.943 C282.774,369.551 275.088,377.077 265.479,377.077 L245.943,377.077 L245.943,342.648 Z M396.044,436.167 L403.25,420.474 L452.412,420.474 L459.778,436.167 L491.325,436.167 L434.797,316.065 L420.545,316.065 L364.497,436.167 L396.044,436.167 Z M427.911,367.469 L440.082,393.891 L415.581,393.891 L427.911,367.469 Z M530.132,347.292 L561.358,347.292 L561.358,436.167 L592.905,436.167 L592.905,347.292 L624.772,347.292 L624.772,315.905 L530.132,315.905 L530.132,347.292 Z M772.952,333.52 C762.063,322.631 747.17,316.065 730.676,316.065 C697.528,316.065 670.625,342.968 670.625,376.116 C670.625,409.265 697.528,436.167 730.676,436.167 C747.33,436.167 762.383,429.282 773.272,418.392 L750.853,396.293 C745.889,401.418 738.843,404.3 730.676,404.3 C714.342,404.3 702.492,392.45 702.492,376.116 C702.492,359.782 714.342,347.932 730.676,347.932 C738.843,347.932 745.889,350.815 750.853,355.779 L772.952,333.52 Z M830.654,316.065 L830.654,436.167 L862.201,436.167 L862.201,390.368 L900.314,390.368 L900.314,436.167 L931.861,436.167 L931.861,316.065 L900.314,316.065 L900.314,358.822 L862.201,358.822 L862.201,316.065 L830.654,316.065 Z " fill="#ffffff" fill-opacity="1.00" />		</g>	</svg>