<?xml version="1.0" encoding="utf-8"?>
<svg viewBox="0 0 500 500" xmlns="http://www.w3.org/2000/svg">
  <g data-paper-data="{&quot;isPaintingLayer&quot;:true}" fill="#ff3c3c" fill-rule="nonzero" stroke="none" stroke-width="1" stroke-linecap="butt" stroke-linejoin="miter" stroke-miterlimit="10" stroke-dasharray="" stroke-dashoffset="0" font-family="none" font-weight="none" font-size="none" text-anchor="none" style="mix-blend-mode: normal" transform="matrix(1, 0, 0, 1, 10, 69.999886)">
    <path d="M242.11,40.4l0.6,0.08l0.6,0.11l0.59,0.14l0.58,0.18l0.57,0.2l0.57,0.24l0.55,0.26l0.54,0.3l0.52,0.33l0.51,0.36l0.49,0.39l0.47,0.42l0.45,0.46l0.43,0.49l0.41,0.51l0.38,0.55l0.36,0.58l0.32,0.61l63.2,126.38l62.84,125.71l0.34,0.72l0.3,0.73l0.25,0.74l0.21,0.73l0.17,0.74l0.13,0.74l0.09,0.74l0.05,0.73l0.01,0.74l-0.03,0.72l-0.06,0.73l-0.1,0.71l-0.13,0.71l-0.17,0.69l-0.2,0.69l-0.24,0.67l-0.26,0.67l-0.3,0.64l-0.33,0.63l-0.36,0.62l-0.39,0.59l-0.42,0.58l-0.44,0.56l-0.47,0.53l-0.5,0.51l-0.53,0.49l-0.54,0.46l-0.58,0.44l-0.59,0.41l-0.62,0.38l-0.64,0.35l-0.66,0.31l-0.68,0.29l-0.7,0.25l-0.72,0.21l-0.73,0.18l-0.76,0.14l-0.77,0.1l-0.78,0.07l-0.8,0.02h-251.22l-0.63,-0.02l-0.63,-0.05l-0.61,-0.08l-0.6,-0.11l-0.59,-0.15l-0.57,-0.17l-0.56,-0.2l-0.55,-0.22l-0.52,-0.26l-0.51,-0.27l-0.49,-0.31l-0.48,-0.32l-0.46,-0.35l-0.43,-0.37l-0.42,-0.39l-0.4,-0.4l-0.37,-0.43l-0.36,-0.44l-0.33,-0.46l-0.31,-0.48l-0.29,-0.49l-0.26,-0.5l-0.24,-0.52l-0.21,-0.53l-0.19,-0.53l-0.16,-0.55l-0.13,-0.56l-0.11,-0.56l-0.08,-0.57l-0.05,-0.58l-0.02,-0.58l0.01,-0.58l0.04,-0.59l0.07,-0.58l0.1,-0.59l0.14,-0.59l0.17,-0.59l0.2,-0.59l0.23,-0.58l0.27,-0.58l64.98,-129.95l63.19,-126.38l0.33,-0.61l0.36,-0.58l0.38,-0.55l0.4,-0.51l0.43,-0.49l0.45,-0.46l0.48,-0.42l0.49,-0.39l0.5,-0.36l0.53,-0.33l0.54,-0.3l0.55,-0.26l0.56,-0.24l0.58,-0.2l0.58,-0.18l0.59,-0.14l0.59,-0.11l0.6,-0.08l0.6,-0.04l0.61,-0.02l0.6,0.02zM271.73,168.47l-0.24,0.04l-0.25,0.04l-0.24,0.06l-0.23,0.07l-0.24,0.08l-0.23,0.1l-0.22,0.11l-0.22,0.12l-0.22,0.13l-0.21,0.15l-0.2,0.16l-0.19,0.17l-0.18,0.19l-0.18,0.2l-0.17,0.21l-0.15,0.22l-0.15,0.24l-0.13,0.25l-25.82,51.65l-26.56,53.1l-0.11,0.24l-0.09,0.24l-0.09,0.24l-0.06,0.24l-0.06,0.24l-0.04,0.24l-0.03,0.24l-0.02,0.24v0.24l0.01,0.23l0.02,0.24l0.03,0.23l0.04,0.23l0.06,0.23l0.06,0.22l0.08,0.22l0.09,0.22l0.1,0.21l0.1,0.2l0.12,0.2l0.13,0.2l0.13,0.19l0.15,0.18l0.15,0.17l0.16,0.17l0.17,0.16l0.18,0.15l0.19,0.14l0.19,0.13l0.2,0.13l0.21,0.11l0.22,0.1l0.22,0.1l0.23,0.08l0.23,0.07l0.24,0.06l0.25,0.04l0.25,0.03l0.25,0.03h0.26h102.66l0.33,-0.01l0.32,-0.02l0.32,-0.04l0.3,-0.06l0.3,-0.07l0.3,-0.09l0.28,-0.11l0.28,-0.11l0.27,-0.13l0.26,-0.14l0.26,-0.16l0.24,-0.16l0.23,-0.18l0.23,-0.19l0.21,-0.2l0.2,-0.21l0.2,-0.22l0.18,-0.23l0.17,-0.23l0.16,-0.25l0.15,-0.25l0.13,-0.25l0.12,-0.27l0.11,-0.27l0.1,-0.27l0.08,-0.28l0.07,-0.29l0.05,-0.29l0.04,-0.29l0.03,-0.3l0.01,-0.29v-0.3l-0.03,-0.3l-0.03,-0.3l-0.05,-0.31l-0.07,-0.3l-0.09,-0.3l-0.1,-0.3l-0.12,-0.3l-0.14,-0.29l-25.68,-51.37l-25.83,-51.65l-0.13,-0.25l-0.15,-0.24l-0.15,-0.22l-0.17,-0.21l-0.18,-0.2l-0.18,-0.19l-0.19,-0.17l-0.2,-0.16l-0.21,-0.15l-0.21,-0.13l-0.22,-0.12l-0.23,-0.11l-0.23,-0.1l-0.23,-0.08l-0.24,-0.07l-0.24,-0.06l-0.25,-0.04l-0.24,-0.04l-0.25,-0.01l-0.24,-0.01l-0.25,0.01z" data-paper-data="{&quot;origPos&quot;:null}" id="cnWVPl4DX 1"/>
  </g>
</svg>