<?xml version="1.0" encoding="utf-8"?>
<svg viewBox="0 0 500 500" xmlns="http://www.w3.org/2000/svg">
  <g transform="matrix(1.912159, 0, 0, 2.054144, -369.969727, -238.354187)" style="">
    <path d="M 402.348 311.675 L 244.804 246.418 C 244.171 246.156 243.758 245.538 243.758 244.852 C 243.758 239.14 243.758 213.446 243.758 205.226 C 243.758 204.66 244.041 204.131 244.511 203.817 C 244.982 203.502 245.579 203.443 246.102 203.66 C 253.387 206.678 275.563 215.863 282.598 218.777 C 283.098 218.984 283.666 218.94 284.128 218.659 C 284.59 218.378 284.89 217.893 284.936 217.355 C 287.177 193.057 304.227 171.574 329.163 164.892 C 361.15 156.321 394.077 175.332 402.648 207.319 C 403.932 212.112 404.597 216.927 404.692 221.678 C 404.692 221.689 404.692 221.7 404.692 221.711 C 404.692 222.982 404.692 295.525 404.692 310.109 C 404.692 310.675 404.409 311.204 403.939 311.518 C 403.468 311.833 402.871 311.892 402.348 311.675 Z M 324.692 235.08 C 324.692 235.766 325.105 236.384 325.739 236.647 C 331.016 238.833 354.754 248.665 362.348 251.811 C 362.871 252.027 363.468 251.969 363.939 251.654 C 364.409 251.339 364.692 250.811 364.692 250.244 C 364.692 243.29 364.692 224.403 364.692 223.86 C 364.692 223.853 364.687 223.848 364.68 223.848 L 364.679 223.848 C 364.676 223.848 364.673 223.846 364.671 223.844 C 364.669 223.842 364.668 223.839 364.668 223.836 C 364.684 223.509 364.692 223.179 364.692 222.848 C 364.692 211.809 355.73 202.848 344.692 202.848 C 333.654 202.848 324.692 211.809 324.692 222.848 C 324.692 223.179 324.7 223.509 324.716 223.836 C 324.716 223.839 324.715 223.842 324.713 223.844 C 324.711 223.846 324.708 223.848 324.705 223.848 L 324.704 223.848 C 324.701 223.848 324.698 223.849 324.696 223.851 C 324.693 223.853 324.692 223.857 324.692 223.86 C 324.692 224.209 324.692 232.094 324.692 235.08 Z" fill-rule="evenodd" stroke-width="1" stroke-linejoin="round" stroke-miterlimit="2" stroke="none" stroke-linecap="butt" stroke-dasharray="" stroke-dashoffset="0" font-family="none" font-weight="none" font-size="none" text-anchor="none" style="mix-blend-mode: normal; fill: rgb(255, 58, 58);"/>
    <path d="M 284.692 282.475 C 284.692 281.368 285.245 280.334 286.165 279.719 C 287.086 279.104 288.253 278.989 289.275 279.413 C 294.111 281.416 302.002 284.684 309.109 287.628 C 318.542 291.535 324.692 300.74 324.692 310.95 L 324.692 310.951 C 324.692 311.4 324.513 311.831 324.196 312.149 C 323.878 312.467 323.446 312.646 322.997 312.646 C 316.459 312.646 292.925 312.646 286.388 312.646 C 285.451 312.646 284.692 311.887 284.692 310.951 C 284.692 310.951 284.692 291.786 284.692 282.475 Z" fill-rule="evenodd" stroke-width="1" stroke-linejoin="round" stroke-miterlimit="2" stroke="none" stroke-linecap="butt" stroke-dasharray="" stroke-dashoffset="0" font-family="none" font-weight="none" font-size="none" text-anchor="none" style="mix-blend-mode: normal; fill: rgb(255, 58, 58);"/>
  </g>
</svg>